<svg width="60" height="30" viewBox="0 0 60 30" fill="none" xmlns="http://www.w3.org/2000/svg">
    <path
        d="M16.5553 0.00309805C17.2539 -0.00769318 17.9434 0.0559082 18.6239 0.194093C19.3188 0.338772 20.0082 0.513819 20.6925 0.71933C21.3498 0.991021 22.0048 1.26166 22.6577 1.53106C23.6873 2.16688 24.6872 2.85131 25.6572 3.58426C26.4363 4.383 27.2293 5.16293 28.0361 5.92395C28.0476 5.98287 28.082 6.03062 28.1395 6.0672C27.7272 6.11485 27.3135 6.1308 26.8983 6.11495C25.3139 6.03721 23.728 6.00532 22.1405 6.01945C22.1578 7.64319 22.1405 9.26665 22.0888 10.8898C20.8958 9.91718 19.6029 9.07356 18.2102 8.35914C16.9053 7.84431 15.5953 7.79656 14.2798 8.21589C13.8354 8.27759 13.4217 8.42083 13.0387 8.64563C12.8346 8.6929 12.6277 8.70885 12.4181 8.69338C10.4883 8.60848 8.55765 8.54488 6.62598 8.50239C6.68835 6.75125 6.77451 5.00049 6.88456 3.25002C7.9322 2.42415 9.08711 1.75567 10.3495 1.24457C11.6682 0.685429 13.0472 0.303438 14.4867 0.0985957C15.1732 0.0244895 15.8627 -0.00731119 16.5553 0.00309805Z"
        fill="#1889D9" />
    <path
        d="M53.2731 8.0249C53.2731 8.1522 53.2731 8.27959 53.2731 8.40689C52.9747 8.37767 52.6988 8.40947 52.4456 8.50239C50.8222 8.52636 49.2018 8.59005 47.5844 8.69338C47.3748 8.70885 47.1679 8.6929 46.9638 8.64563C46.5527 8.39963 46.1045 8.25639 45.6192 8.21589C44.4189 7.82111 43.2122 7.83696 41.9992 8.26364C41.228 8.57181 40.504 8.9538 39.8271 9.40961C39.2196 9.93896 38.5817 10.4324 37.9137 10.8898C37.8621 10.5092 37.8448 10.1272 37.862 9.74386C37.862 8.53419 37.862 7.32461 37.862 6.11495C36.2923 6.00025 34.7064 6.00025 33.1042 6.11495C32.689 6.1308 32.2753 6.11485 31.863 6.0672C31.9205 6.03062 31.9549 5.98287 31.9664 5.92395C32.7043 5.22653 33.4283 4.5103 34.1385 3.77525C35.1676 2.96687 36.2363 2.21883 37.3448 1.53106C41.3454 -0.392071 45.4136 -0.503517 49.5496 1.19682C50.852 1.72578 52.0414 2.41021 53.1179 3.25002C53.2535 4.83891 53.3053 6.43057 53.2731 8.0249Z"
        fill="#C93F22" />
    <path
        d="M8.28087 23.3045C7.5913 23.3045 6.90183 23.3045 6.21226 23.3045C5.52269 23.3045 4.83322 23.3045 4.14365 23.3045C3.79219 23.3351 3.44736 23.3033 3.10935 23.209C2.54617 22.5632 2.02902 21.8947 1.55789 21.2036C1.28587 20.5435 0.975578 19.9069 0.627018 19.2936C0.3913 18.4122 0.201608 17.5209 0.0581505 16.6197C0.00643531 15.8245 -0.0107341 15.0287 0.00643531 14.2322C0.00643531 14.0094 0.00643531 13.7866 0.00643531 13.5638C0.476526 10.181 2.11414 7.37972 4.91938 5.15997C4.94151 6.87883 4.92434 8.59779 4.86766 10.3168C6.90421 10.3507 8.93827 10.4303 10.9701 10.5556C8.62012 12.3269 7.98226 14.5393 9.05659 17.1927C9.07387 17.5429 9.09104 17.893 9.10831 18.2431C9.02298 19.9293 8.98843 21.6165 9.00488 23.3045C8.76358 23.3045 8.52217 23.3045 8.28087 23.3045Z"
        fill="#2BB1E5" />
    <path
        d="M26.7949 7.35642C27.3465 7.35642 27.8982 7.35642 28.4498 7.35642C28.7399 7.43463 29.0502 7.48238 29.3807 7.49966C29.6599 7.74681 29.9012 8.01735 30.1047 8.31139C28.4171 10.3783 26.6933 12.4156 24.9332 14.4232C24.4881 13.9317 24.0571 13.4224 23.6403 12.8953C23.5886 11.0174 23.5713 9.13926 23.5886 7.26092C24.6598 7.24449 25.7285 7.27629 26.7949 7.35642Z"
        fill="#FDCB4F" />
    <path
        d="M35.1728 7.8339C35.5175 7.8339 35.8623 7.8339 36.2071 7.8339C36.2243 9.71225 36.2071 11.5904 36.1554 13.4683C35.8435 13.7909 35.5849 14.1409 35.3796 14.5187C33.5847 16.6861 31.8264 18.8825 30.1047 21.1081C29.0737 22.3092 28.0911 23.5507 27.1569 24.8325C27.1052 22.9546 27.0879 21.0765 27.1052 19.1981C25.0355 19.2299 22.9668 19.1981 20.8994 19.1026C21.4087 18.5723 21.8914 18.0311 22.3474 17.4792C23.2876 16.5158 24.1495 15.4971 24.9332 14.4232C26.6933 12.4156 28.4171 10.3783 30.1047 8.31139C30.2058 8.28169 30.2748 8.218 30.3115 8.1204C31.9278 7.97008 33.5483 7.87459 35.1728 7.8339Z"
        fill="#5FDABE" />
    <path
        d="M35.3796 14.5187C36.1709 15.5036 36.9983 16.4586 37.862 17.3837C38.1332 17.7616 38.4434 18.1117 38.7928 18.4341C36.7587 18.4978 34.7246 18.5614 32.6904 18.6251C32.7077 20.4717 32.6904 22.318 32.6387 24.164C32.0789 23.5369 31.5445 22.9003 31.0356 22.254C30.8016 21.8157 30.4913 21.4337 30.1047 21.1081C31.8264 18.8825 33.5847 16.6861 35.3796 14.5187Z"
        fill="#FDCB50" />
    <path
        d="M59.9961 13.5638C59.9961 13.7866 59.9961 14.0094 59.9961 14.2322C60.0124 15.1577 59.978 16.0808 59.8926 17.0017C59.6162 18.4379 59.1336 19.8066 58.4446 21.1081C57.9934 21.8278 57.4763 22.5123 56.8931 23.1613C54.9283 23.209 52.9631 23.225 50.9976 23.209C51.0156 22.5372 50.9812 21.8687 50.8942 21.2036C50.8942 20.5669 50.8942 19.9303 50.8942 19.2936C50.877 18.5926 50.8942 17.8923 50.9459 17.1927C51.9952 14.5862 51.3919 12.3738 49.1359 10.5556C51.133 10.4272 53.1326 10.3477 55.1348 10.3168C55.0487 8.59836 55.0314 6.8794 55.0831 5.15997C57.8893 7.38153 59.5269 10.1828 59.9961 13.5638Z"
        fill="#E67228" />
    <path
        d="M16.5553 21.7766C17.9126 21.7068 19.0848 21.2452 20.0719 20.3918C22.0024 20.3441 23.933 20.3281 25.864 20.3441C25.8985 22.3824 25.864 24.4196 25.7606 26.4559C24.3177 27.775 22.6284 28.7299 20.6925 29.3209C17.188 30.3395 13.7403 30.2122 10.3495 28.9389C8.18654 27.9914 6.32479 26.6862 4.76423 25.0235C6.72941 24.9598 8.69459 24.8962 10.6598 24.8325C10.6253 22.9215 10.6598 21.0115 10.7632 19.1026C11.167 19.4987 11.5463 19.9125 11.9009 20.3441C13.2153 21.4489 14.7668 21.9264 16.5553 21.7766Z"
        fill="#5ED0DB" />
    <path
        d="M49.1359 19.1981C49.2049 20.2486 49.2737 21.2991 49.3427 22.3495C49.3427 23.1772 49.3427 24.0048 49.3427 24.8325C50.1357 24.8325 50.9286 24.8325 51.7216 24.8325C52.8936 24.8774 54.0659 24.9251 55.2383 24.9757C53.6457 26.7496 51.7151 28.1024 49.4462 29.0344C46.1035 30.2026 42.7247 30.2981 39.31 29.3209C37.3288 28.7329 35.6222 27.746 34.1902 26.3604C34.1385 24.3553 34.1212 22.3498 34.1385 20.3441C36.0362 20.2909 37.9324 20.2909 39.8271 20.3441C41.0593 21.4241 42.5073 21.9016 44.1712 21.7766C46.3536 21.7565 48.0085 20.897 49.1359 19.1981Z"
        fill="#FE910F" />
</svg>